<mxfile host="app.diagrams.net" modified="2023-06-10T03:13:19.229Z" agent="Mozilla/5.0 (Macintosh; Intel Mac OS X 10_15_7) AppleWebKit/537.36 (KHTML, like Gecko) Chrome/114.0.0.0 Safari/537.36 Edg/114.0.1823.37" etag="6kJTVhMnOKPukOwJl2wo" version="21.3.8" type="github">
  <diagram name="Page-1" id="74e2e168-ea6b-b213-b513-2b3c1d86103e">
    <mxGraphModel dx="1831" dy="1414" grid="1" gridSize="10" guides="1" tooltips="1" connect="1" arrows="1" fold="1" page="1" pageScale="1" pageWidth="1100" pageHeight="850" background="none" math="0" shadow="0">
      <root>
        <mxCell id="0" />
        <mxCell id="1" parent="0" />
        <mxCell id="77e6c97f196da883-1" value="&lt;strong style=&quot;font-family: &amp;quot;lucida grande&amp;quot;, &amp;quot;lucida sans unicode&amp;quot;, lucida, helvetica, &amp;quot;Hiragino Sans GB&amp;quot;, &amp;quot;Microsoft YaHei&amp;quot;, &amp;quot;WenQuanYi Micro Hei&amp;quot;, sans-serif; text-align: start;&quot;&gt;&lt;font style=&quot;font-size: 11px;&quot;&gt;AnnotationConfigApplicationContext ctx = new AnnotationConfigApplicationContext(MainConfig.class);&lt;/font&gt;&lt;/strong&gt;" style="swimlane;html=1;childLayout=stackLayout;startSize=20;rounded=0;shadow=0;labelBackgroundColor=none;strokeWidth=1;fontFamily=Verdana;fontSize=8;align=center;" parent="1" vertex="1">
          <mxGeometry x="-40" y="-90" width="1070" height="750" as="geometry">
            <mxRectangle x="10" y="20" width="70" height="30" as="alternateBounds" />
          </mxGeometry>
        </mxCell>
        <mxCell id="77e6c97f196da883-2" value="&lt;strong style=&quot;font-family: &amp;quot;lucida grande&amp;quot;, &amp;quot;lucida sans unicode&amp;quot;, lucida, helvetica, &amp;quot;Hiragino Sans GB&amp;quot;, &amp;quot;Microsoft YaHei&amp;quot;, &amp;quot;WenQuanYi Micro Hei&amp;quot;, sans-serif; text-align: start;&quot;&gt;&lt;font style=&quot;font-size: 10px;&quot;&gt;AnnotationConfigApplicationContext&lt;/font&gt;&lt;/strong&gt;" style="swimlane;html=1;startSize=20;" parent="77e6c97f196da883-1" vertex="1">
          <mxGeometry y="20" width="310" height="730" as="geometry">
            <mxRectangle y="20" width="40" height="730" as="alternateBounds" />
          </mxGeometry>
        </mxCell>
        <mxCell id="hCjVSl2V77esxhgFQinN-2" value="&lt;b&gt;this()方法：&lt;/b&gt;&lt;br&gt;先调用父类的构造方法&lt;br&gt;" style="rounded=0;whiteSpace=wrap;html=1;" vertex="1" parent="77e6c97f196da883-2">
          <mxGeometry x="42.5" y="40" width="165" height="80" as="geometry" />
        </mxCell>
        <mxCell id="hCjVSl2V77esxhgFQinN-8" value="&lt;div style=&quot;font-family: &amp;quot;JetBrains Mono&amp;quot;, monospace;&quot;&gt;&lt;pre style=&quot;&quot;&gt;&lt;font style=&quot;font-size: 8px;&quot;&gt;new &lt;/font&gt;&lt;/pre&gt;&lt;pre style=&quot;&quot;&gt;&lt;font size=&quot;3&quot; style=&quot;&quot;&gt;AnnotatedBeanDefinitionReader(this);&lt;/font&gt;&lt;/pre&gt;&lt;/div&gt;" style="rounded=0;whiteSpace=wrap;html=1;" vertex="1" parent="77e6c97f196da883-2">
          <mxGeometry x="10" y="220" width="290" height="60" as="geometry" />
        </mxCell>
        <mxCell id="hCjVSl2V77esxhgFQinN-4" value="GenericApplicationContext" style="swimlane;html=1;startSize=20;" vertex="1" parent="77e6c97f196da883-1">
          <mxGeometry x="310" y="20" width="230" height="730" as="geometry">
            <mxRectangle y="20" width="40" height="730" as="alternateBounds" />
          </mxGeometry>
        </mxCell>
        <mxCell id="hCjVSl2V77esxhgFQinN-5" value="GenericApplicationContext的构造方法，new 了一个DefaultListableBeanFactory" style="rounded=0;whiteSpace=wrap;html=1;" vertex="1" parent="hCjVSl2V77esxhgFQinN-4">
          <mxGeometry x="42.5" y="150" width="165" height="50" as="geometry" />
        </mxCell>
        <mxCell id="hCjVSl2V77esxhgFQinN-9" style="edgeStyle=orthogonalEdgeStyle;rounded=0;orthogonalLoop=1;jettySize=auto;html=1;" edge="1" parent="77e6c97f196da883-1" source="hCjVSl2V77esxhgFQinN-2" target="hCjVSl2V77esxhgFQinN-5">
          <mxGeometry relative="1" as="geometry" />
        </mxCell>
        <mxCell id="hCjVSl2V77esxhgFQinN-10" style="edgeStyle=orthogonalEdgeStyle;rounded=0;orthogonalLoop=1;jettySize=auto;html=1;entryX=0.5;entryY=0;entryDx=0;entryDy=0;" edge="1" parent="77e6c97f196da883-1" source="hCjVSl2V77esxhgFQinN-5" target="hCjVSl2V77esxhgFQinN-8">
          <mxGeometry relative="1" as="geometry" />
        </mxCell>
        <mxCell id="hCjVSl2V77esxhgFQinN-11" value="AnnotatedBeanDefinitionReader" style="swimlane;html=1;startSize=20;" vertex="1" parent="77e6c97f196da883-1">
          <mxGeometry x="540" y="20" width="250" height="730" as="geometry">
            <mxRectangle y="20" width="40" height="730" as="alternateBounds" />
          </mxGeometry>
        </mxCell>
        <mxCell id="hCjVSl2V77esxhgFQinN-12" value="new ConditionEvaluator&lt;br&gt;@Condition注解解析器" style="rounded=0;whiteSpace=wrap;html=1;" vertex="1" parent="hCjVSl2V77esxhgFQinN-11">
          <mxGeometry x="42.5" y="300" width="165" height="50" as="geometry" />
        </mxCell>
        <mxCell id="hCjVSl2V77esxhgFQinN-13" style="edgeStyle=orthogonalEdgeStyle;rounded=0;orthogonalLoop=1;jettySize=auto;html=1;entryX=0.5;entryY=0;entryDx=0;entryDy=0;" edge="1" parent="77e6c97f196da883-1" source="hCjVSl2V77esxhgFQinN-8" target="hCjVSl2V77esxhgFQinN-12">
          <mxGeometry relative="1" as="geometry" />
        </mxCell>
        <mxCell id="hCjVSl2V77esxhgFQinN-32" style="edgeStyle=orthogonalEdgeStyle;rounded=0;orthogonalLoop=1;jettySize=auto;html=1;entryX=0.5;entryY=0;entryDx=0;entryDy=0;" edge="1" parent="77e6c97f196da883-1" source="hCjVSl2V77esxhgFQinN-12" target="hCjVSl2V77esxhgFQinN-26">
          <mxGeometry relative="1" as="geometry" />
        </mxCell>
        <mxCell id="hCjVSl2V77esxhgFQinN-25" value="AnnotationConfigUtils" style="swimlane;html=1;startSize=20;" vertex="1" parent="77e6c97f196da883-1">
          <mxGeometry x="790" y="20" width="250" height="730" as="geometry">
            <mxRectangle y="20" width="40" height="730" as="alternateBounds" />
          </mxGeometry>
        </mxCell>
        <mxCell id="hCjVSl2V77esxhgFQinN-26" value="registerAnnotationConfigProcessors" style="rounded=0;whiteSpace=wrap;html=1;" vertex="1" parent="hCjVSl2V77esxhgFQinN-25">
          <mxGeometry x="21.25" y="370" width="207.5" height="50" as="geometry" />
        </mxCell>
      </root>
    </mxGraphModel>
  </diagram>
</mxfile>
